<?xml version="1.0" standalone="no"?>
<!DOCTYPE svg PUBLIC "-//W3C//DTD SVG 20010904//EN"
 "http://www.w3.org/TR/2001/REC-SVG-20010904/DTD/svg10.dtd">
<svg version="1.0" xmlns="http://www.w3.org/2000/svg"
 width="105.000000pt" height="105.000000pt" viewBox="0 0 105.000000 105.000000"
 preserveAspectRatio="xMidYMid meet">

<g transform="translate(0.000000,105.000000) scale(0.100000,-0.100000)"
fill="#000000" stroke="none">
<path d="M865 1040 c3 -6 -1 -13 -9 -16 -9 -3 -16 -12 -16 -20 0 -8 -7 -14
-16 -14 -19 0 -44 -24 -44 -42 0 -26 20 -34 63 -28 34 4 41 9 39 24 -3 15 1
17 22 12 14 -3 26 -2 26 3 0 16 52 72 74 81 14 6 -7 9 -62 9 -53 1 -81 -3 -77
-9z m5 -90 c0 -5 -7 -10 -15 -10 -8 0 -15 5 -15 10 0 6 7 10 15 10 8 0 15 -4
15 -10z"/>
<path d="M1028 1022 c-21 -9 -56 -54 -51 -67 2 -6 -19 -22 -46 -35 -27 -14
-44 -28 -39 -31 6 -4 -1 -14 -16 -24 -37 -24 -32 -35 14 -32 39 2 41 4 44 46
1 17 26 28 26 12 0 -6 8 -7 18 -4 15 6 15 5 3 -10 -10 -13 -11 -20 -2 -31 21
-25 21 -54 0 -59 -10 -3 -19 -12 -19 -20 0 -27 17 -28 41 -3 13 13 29 22 36
19 10 -4 13 21 13 121 0 69 -1 126 -2 125 -2 0 -11 -3 -20 -7z"/>
<path d="M495 900 c-16 -7 -12 -9 20 -10 22 -1 49 -1 59 0 15 1 18 -3 13 -20
-5 -19 -2 -21 24 -15 16 4 29 3 30 -2 7 -56 6 -63 -8 -51 -14 12 -151 13 -162
2 -11 -11 20 -20 59 -18 l40 2 -1 -47 c-2 -45 -2 -46 -9 -11 l-7 35 -2 -32
c-1 -26 -5 -33 -21 -33 -11 0 -20 7 -20 16 0 8 -4 12 -10 9 -5 -3 -10 -15 -10
-25 0 -42 -16 -25 -17 18 0 26 1 39 4 29 3 -10 9 -14 16 -10 7 4 18 8 26 8 8
0 16 5 18 10 2 6 -23 11 -62 12 l-65 1 6 -34 c4 -22 2 -34 -5 -34 -6 0 -11 15
-12 33 0 17 -5 41 -10 52 -7 16 -8 14 -3 -9 l5 -30 -21 25 -21 24 7 -25 c4
-14 12 -28 18 -32 6 -4 7 -8 2 -8 -5 0 -3 -6 3 -13 8 -11 5 -14 -19 -14 -16 0
-38 -7 -47 -16 -10 -8 -30 -19 -45 -22 -45 -11 -32 -23 18 -17 41 4 46 3 42
-14 -2 -15 -12 -19 -45 -20 -23 0 -48 -6 -57 -13 -8 -7 -24 -10 -36 -6 -12 4
-26 2 -33 -3 -14 -11 -76 -27 -94 -23 -7 1 -13 -5 -13 -14 0 -19 -19 -20 -26
0 -4 8 -10 15 -15 15 -10 0 -13 -343 -2 -353 3 -4 11 -1 17 7 6 7 23 16 37 20
22 5 28 2 32 -15 6 -22 -13 -49 -33 -49 -7 0 -10 7 -6 15 3 9 0 15 -9 15 -8 0
-15 -5 -15 -11 0 -6 -7 -9 -15 -5 -13 4 -15 -10 -15 -94 l0 -100 179 0 c173 0
241 5 241 19 0 4 -26 7 -57 8 -46 1 -61 6 -75 23 -14 17 -21 19 -37 10 -17 -9
-28 -4 -68 27 -26 20 -39 33 -28 29 45 -17 49 -17 26 4 -21 18 -22 23 -10 31
20 12 37 11 19 -2 -12 -8 -10 -9 8 -4 13 4 28 2 35 -3 7 -6 30 -10 52 -10 59
0 59 0 99 -27 51 -35 185 -46 249 -21 64 24 280 19 285 -6 2 -10 -2 -18 -8
-18 -6 0 -8 5 -5 10 3 6 2 10 -3 10 -6 0 -12 -7 -16 -15 -3 -9 -18 -15 -35
-15 -16 0 -33 -4 -36 -10 -3 -5 -1 -10 5 -10 7 0 10 -7 6 -15 -3 -9 0 -15 9
-15 20 0 65 22 65 32 0 4 6 8 14 8 8 0 28 14 44 30 34 34 67 43 37 10 -10 -11
-21 -17 -25 -15 -4 3 -10 -2 -14 -10 -3 -8 0 -15 7 -15 7 -1 1 -10 -12 -20
l-23 -20 58 2 59 3 1 111 c1 105 0 110 -20 110 -12 -1 -21 5 -21 14 0 10 8 14
23 12 26 -4 29 6 5 24 -13 9 -22 9 -31 2 -9 -8 -18 -6 -31 9 -15 15 -17 30
-13 71 2 30 9 50 16 49 17 -3 26 -19 26 -49 0 -16 5 -28 10 -28 6 0 10 18 10
40 0 26 4 39 12 38 6 -2 14 5 16 16 4 17 -1 18 -47 14 l-51 -5 0 38 c0 33 3
38 29 44 74 16 43 66 -114 185 -38 29 -72 56 -75 60 -3 4 -41 31 -84 60 -44
29 -87 61 -98 72 -19 19 -77 23 -113 8z m215 -106 c0 -2 -7 -4 -15 -4 -8 0
-15 4 -15 10 0 5 7 7 15 4 8 -4 15 -8 15 -10z m-80 -24 c0 -5 -7 -7 -15 -4 -9
4 -15 0 -15 -10 0 -10 6 -13 15 -10 11 5 15 -1 14 -22 -1 -17 -3 -22 -6 -11
-2 9 -9 17 -14 17 -5 0 -9 -8 -10 -17 0 -13 -3 -11 -10 6 -13 32 -2 61 22 61
10 0 19 -4 19 -10z m64 1 c13 -5 16 -10 9 -14 -7 -4 -14 -3 -18 3 -3 5 -14 10
-23 10 -16 -1 -16 -2 1 -14 24 -19 23 -56 -3 -56 -16 0 -20 7 -20 33 0 47 11
55 54 38z m-239 -69 c-8 -8 -25 17 -25 38 0 9 6 6 16 -8 9 -13 13 -26 9 -30z
m281 32 c-8 -8 -20 -14 -26 -14 -6 0 -8 -5 -5 -10 4 -6 11 -7 17 -4 7 4 8 2 4
-4 -10 -16 -36 -3 -36 19 0 13 5 17 17 12 9 -4 14 -2 10 3 -3 6 3 11 14 11 17
2 17 0 5 -13z m57 -41 c-7 -2 -19 -2 -25 0 -7 3 -2 5 12 5 14 0 19 -2 13 -5z
m-373 -17 c0 -8 -71 -12 -76 -4 -3 4 13 8 35 8 23 0 41 -2 41 -4z m23 -16 c3
-11 1 -20 -4 -20 -5 0 -9 9 -9 20 0 11 2 20 4 20 2 0 6 -9 9 -20z m144 -2 c-3
-8 -6 -5 -6 6 -1 11 2 17 5 13 3 -3 4 -12 1 -19z m20 0 c-3 -8 -6 -5 -6 6 -1
11 2 17 5 13 3 -3 4 -12 1 -19z m73 9 c-14 -8 -27 -12 -30 -10 -7 6 23 23 40
23 8 0 4 -6 -10 -13z m-40 -17 c0 -5 -5 -10 -11 -10 -5 0 -7 5 -4 10 3 6 8 10
11 10 2 0 4 -4 4 -10z m-270 -19 c0 -22 -16 -36 -24 -22 -8 12 3 41 15 41 5 0
9 -9 9 -19z m40 -10 c0 -6 -4 -13 -10 -16 -5 -3 -10 1 -10 9 0 9 5 16 10 16 6
0 10 -4 10 -9z m337 3 c-3 -3 -12 -4 -19 -1 -8 3 -5 6 6 6 11 1 17 -2 13 -5z
m-586 -122 c23 3 24 0 27 -62 2 -36 6 -68 10 -72 4 -4 23 -3 42 1 25 5 35 12
36 26 0 11 1 40 2 64 2 43 2 43 35 37 36 -7 98 -36 109 -51 12 -16 9 -32 -8
-49 -9 -9 -11 -16 -4 -16 7 0 10 -19 8 -52 -2 -39 -7 -53 -18 -53 -27 0 -80
-29 -81 -45 -1 -11 -3 -10 -6 3 -6 23 -29 22 -36 -3 -6 -22 -23 -27 -30 -7 -2
6 -3 5 -2 -4 5 -36 -43 -61 -65 -34 -11 13 -8 15 20 15 21 0 30 4 28 13 -3 6
-10 12 -16 11 -7 -1 -21 -2 -32 -2 -13 -1 -20 -9 -20 -21 0 -11 -9 -23 -21
-26 -19 -7 -20 -7 -2 -21 16 -12 15 -13 -20 -14 -35 0 -36 1 -25 20 7 11 21
20 30 20 10 0 18 2 18 4 0 2 3 11 6 20 4 11 0 16 -14 16 -26 0 -30 18 -27 145
2 94 0 110 -16 124 -28 23 -23 30 15 20 18 -5 44 -8 57 -7z m459 -183 c0 -49
-3 -88 -7 -86 -8 5 -5 177 3 177 2 0 4 -41 4 -91z m368 -194 c-2 -2 -17 -7
-33 -11 -27 -7 -29 -6 -16 9 7 10 20 17 27 17 8 0 15 8 15 18 1 10 3 8 6 -6 3
-13 3 -25 1 -27z m-408 25 l-25 -8 25 -2 25 -1 -24 -10 c-13 -5 -48 -9 -78 -8
-29 1 -56 -1 -60 -4 -3 -4 33 -7 81 -7 51 0 85 -4 81 -9 -8 -14 -195 -11 -192
3 4 22 26 36 59 37 l33 1 -30 8 c-21 5 -7 8 50 8 54 0 72 -3 55 -8z m435 -109
c-3 -6 -11 -11 -17 -11 -6 0 -6 6 2 15 14 17 26 13 15 -4z"/>
<path d="M656 731 c-4 -7 -5 -15 -2 -18 9 -9 19 4 14 18 -4 11 -6 11 -12 0z"/>
<path d="M540 836 c0 -2 7 -6 15 -10 8 -3 15 -1 15 4 0 6 -7 10 -15 10 -8 0
-15 -2 -15 -4z"/>
<path d="M431 794 c0 -11 3 -14 6 -6 3 7 2 16 -1 19 -3 4 -6 -2 -5 -13z"/>
<path d="M451 794 c0 -11 3 -14 6 -6 3 7 2 16 -1 19 -3 4 -6 -2 -5 -13z"/>
<path d="M400 790 c0 -5 5 -10 10 -10 6 0 10 5 10 10 0 6 -4 10 -10 10 -5 0
-10 -4 -10 -10z"/>
<path d="M331 760 c-2 -23 -3 -24 -11 -5 -8 18 -9 18 -9 2 -1 -17 26 -55 32
-46 2 2 0 20 -4 39 -5 28 -7 30 -8 10z"/>
<path d="M1030 750 c0 -5 5 -10 10 -10 6 0 10 5 10 10 0 6 -4 10 -10 10 -5 0
-10 -4 -10 -10z"/>
<path d="M520 720 c0 -5 5 -10 10 -10 6 0 10 5 10 10 0 6 -4 10 -10 10 -5 0
-10 -4 -10 -10z"/>
<path d="M198 643 c6 -2 18 -2 25 0 6 3 1 5 -13 5 -14 0 -19 -2 -12 -5z"/>
<path d="M138 633 c7 -3 16 -2 19 1 4 3 -2 6 -13 5 -11 0 -14 -3 -6 -6z"/>
<path d="M30 611 c0 -5 9 -7 20 -4 11 3 20 7 20 9 0 2 -9 4 -20 4 -11 0 -20
-4 -20 -9z"/>
<path d="M852 78 c5 -15 28 -23 28 -10 0 5 -7 13 -16 16 -10 4 -14 1 -12 -6z"/>
</g>
</svg>
