<?xml version="1.0" standalone="no"?>
<!DOCTYPE svg PUBLIC "-//W3C//DTD SVG 20010904//EN"
 "http://www.w3.org/TR/2001/REC-SVG-20010904/DTD/svg10.dtd">
<svg version="1.0" xmlns="http://www.w3.org/2000/svg"
 width="266.000000pt" height="190.000000pt" viewBox="0 0 266.000000 190.000000"
 preserveAspectRatio="xMidYMid meet">

<g transform="translate(0.000000,190.000000) scale(0.100000,-0.100000)"
fill="#000000" stroke="none">
<path d="M1176 1544 c-200 -48 -387 -236 -440 -440 -20 -79 -21 -228 0 -307
54 -208 231 -386 437 -440 l57 -15 0 214 0 214 -80 0 -80 0 0 90 0 90 79 0 79
0 3 113 c4 101 7 117 32 159 50 86 149 121 291 104 l56 -7 0 -79 0 -78 -66 -4
c-58 -4 -70 -8 -90 -32 -21 -23 -24 -38 -24 -102 l0 -74 86 0 87 0 -7 -37 c-3
-21 -9 -62 -12 -90 l-7 -53 -73 0 -74 0 0 -214 0 -214 51 13 c213 56 389 232
443 442 21 79 20 228 0 307 -42 165 -171 321 -324 394 -47 22 -109 45 -138 51
-72 15 -214 12 -286 -5z"/>
</g>
</svg>
