<?xml version="1.0" standalone="no"?>
<!DOCTYPE svg PUBLIC "-//W3C//DTD SVG 20010904//EN"
 "http://www.w3.org/TR/2001/REC-SVG-20010904/DTD/svg10.dtd">
<svg version="1.0" xmlns="http://www.w3.org/2000/svg"
 width="225.000000pt" height="225.000000pt" viewBox="0 0 225.000000 225.000000"
 preserveAspectRatio="xMidYMid meet">

<g transform="translate(0.000000,225.000000) scale(0.100000,-0.100000)"
fill="#000000" stroke="none">
<path d="M725 1963 c-195 -26 -364 -170 -422 -358 -15 -49 -18 -94 -18 -255 0
-140 4 -206 14 -234 9 -27 16 -35 22 -25 6 11 14 8 37 -14 15 -15 37 -27 48
-27 23 -1 70 -41 77 -66 3 -11 5 74 6 187 0 113 6 232 12 265 30 165 154 287
319 314 85 13 526 13 610 -1 168 -27 297 -156 321 -323 5 -33 9 -173 9 -311 0
-352 -16 -415 -135 -523 -61 -56 -133 -88 -220 -98 -31 -4 -53 -9 -50 -12 8
-9 78 -32 96 -32 9 0 24 -9 34 -20 10 -11 25 -20 33 -20 8 0 30 -13 49 -30 18
-16 38 -30 43 -30 22 0 8 -30 -15 -36 -14 -4 -24 -9 -21 -11 7 -8 106 29 106
40 0 4 4 6 9 3 10 -7 81 42 134 93 51 48 91 112 118 191 23 63 24 77 27 460 4
434 -1 485 -54 597 -37 76 -149 189 -227 226 -107 52 -157 57 -562 55 -203 0
-383 -3 -400 -5z"/>
<path d="M765 1606 c-60 -28 -97 -66 -124 -126 -19 -42 -20 -63 -19 -320 0
-151 4 -255 8 -230 5 31 7 36 8 17 2 -32 23 -57 46 -57 9 0 16 -4 16 -10 0 -5
8 -10 18 -10 9 -1 33 -14 52 -30 19 -17 41 -30 50 -30 8 0 21 -9 28 -20 7 -11
23 -20 36 -20 12 0 31 -9 41 -20 10 -11 28 -20 40 -20 12 0 30 -9 39 -19 10
-11 31 -25 47 -31 16 -7 29 -16 29 -21 0 -5 9 -9 20 -9 38 0 20 -19 -22 -23
-24 -2 47 -4 157 -5 174 -1 205 1 240 17 61 28 105 70 131 126 23 49 24 56 24
360 0 290 -2 313 -21 355 -27 60 -64 98 -124 126 -49 23 -55 24 -360 24 -305
0 -311 -1 -360 -24z m745 -96 c45 -45 11 -130 -52 -130 -36 0 -78 40 -78 75 0
61 87 98 130 55z m-307 -85 c139 -36 226 -139 235 -280 8 -129 -60 -245 -176
-302 -47 -23 -70 -28 -132 -27 -124 0 -219 58 -278 169 -23 43 -27 62 -27 140
0 75 4 97 23 133 58 109 158 174 277 181 12 0 46 -6 78 -14z"/>
<path d="M1040 1298 c-183 -99 -106 -378 102 -365 241 14 241 368 0 385 -46 3
-66 -1 -102 -20z"/>
</g>
</svg>
